<?xml version="1.0" standalone="no"?>
<!DOCTYPE svg PUBLIC "-//W3C//DTD SVG 20010904//EN"
 "http://www.w3.org/TR/2001/REC-SVG-20010904/DTD/svg10.dtd">
<svg version="1.0" xmlns="http://www.w3.org/2000/svg"
 width="2000.000000pt" height="277.000000pt" viewBox="0 0 2000.000000 277.000000"
 preserveAspectRatio="xMidYMid meet">
<metadata>
Created by potrace 1.16, written by Peter Selinger 2001-2019
</metadata>
<g transform="translate(0.000000,277.000000) scale(0.100000,-0.100000)"
fill="#831a19" stroke="none">
<path d="M5320 1665 l0 -1105 335 0 335 0 0 1105 0 1105 -335 0 -335 0 0
-1105z"/>
<path d="M17120 1847 l0 -922 183 -183 182 -182 298 0 297 0 0 205 0 205 -145
0 -145 0 0 900 0 900 -335 0 -335 0 0 -923z"/>
<path d="M237 2362 l-197 -197 0 -605 0 -605 198 -198 197 -197 423 0 422 0 0
205 0 205 -285 0 -285 0 0 795 0 795 -138 0 -137 0 -198 -198z"/>
<path d="M800 2355 l0 -205 250 0 250 0 0 -100 0 -100 335 0 335 0 0 103 0
102 -177 203 -176 202 -409 0 -408 0 0 -205z"/>
<path d="M10655 2445 l-330 -112 -3 -87 -3 -86 -64 0 -65 0 0 -205 0 -205 65
0 65 0 0 -393 0 -392 203 -203 202 -202 353 0 352 0 0 205 0 205 -215 0 -215
0 0 795 c0 437 -3 794 -7 794 -5 -1 -156 -52 -338 -114z"/>
<path d="M11872 2357 l-202 -202 0 -225 0 -225 203 -203 202 -202 428 0 427 0
0 -370 0 -370 138 0 137 0 198 198 197 197 0 251 0 251 -187 196 -188 196
-457 0 -458 1 0 355 0 355 -118 0 -117 0 -203 -203z"/>
<path d="M12400 2375 l0 -185 265 0 265 0 0 -100 0 -100 310 0 310 0 0 113 0
112 -173 173 -172 172 -403 0 -402 0 0 -185z"/>
<path d="M14265 2446 l-330 -112 -3 -87 -3 -87 -64 0 -65 0 0 -205 0 -205 65
0 65 0 0 -398 0 -397 198 -198 197 -197 358 0 357 0 0 205 0 205 -220 0 -220
0 -2 794 -3 794 -330 -112z"/>
<path d="M2462 2057 l-102 -102 0 -103 0 -102 475 0 475 0 0 -595 0 -595 325
0 325 0 0 603 0 602 -198 198 -197 197 -500 0 -500 0 -103 -103z"/>
<path d="M4417 1982 l-177 -177 0 -445 0 -445 177 -177 178 -178 235 0 235 0
83 83 82 82 0 108 0 107 -160 0 -160 0 0 405 0 405 160 0 160 0 0 205 0 205
-318 0 -317 0 -178 -178z"/>
<path d="M6477 1962 l-197 -197 0 -405 0 -405 198 -198 197 -197 185 0 185 0
103 103 102 102 0 88 0 87 -150 0 -150 0 0 610 0 610 -138 0 -137 0 -198 -198z"/>
<path d="M7050 1955 l0 -205 145 0 145 0 0 -695 0 -695 -405 0 -405 0 0 -78 0
-77 103 -103 102 -102 440 0 440 1 198 203 197 204 0 679 0 678 -198 198 -197
197 -283 0 -282 0 0 -205z"/>
<path d="M8487 1962 l-197 -197 0 -405 0 -405 198 -198 197 -197 138 0 137 0
0 800 0 800 -138 0 -137 0 -198 -198z"/>
<path d="M9050 1955 l0 -205 175 0 175 0 0 -135 0 -135 -175 0 -175 0 0 -140
0 -140 485 0 485 0 0 283 0 282 -198 198 -197 197 -288 0 -287 0 0 -205z"/>
<path d="M11090 1955 l0 -205 185 0 185 0 0 205 0 205 -185 0 -185 0 0 -205z"/>
<path d="M14690 1955 l0 -205 185 0 185 0 0 205 0 205 -185 0 -185 0 0 -205z"/>
<path d="M15113 2148 c3 -7 134 -335 293 -728 158 -393 290 -719 294 -723 8
-9 301 789 300 818 -1 11 -50 160 -109 330 l-108 310 -338 3 c-268 2 -336 0
-332 -10z"/>
<path d="M15945 1095 c-220 -586 -401 -1070 -403 -1075 -2 -6 114 -10 320 -10
l323 0 400 1061 c220 584 401 1068 403 1075 3 12 -51 14 -320 14 l-323 0 -400
-1065z"/>
<path d="M18427 1962 l-197 -197 0 -405 0 -405 198 -198 197 -197 138 0 137 0
0 800 0 800 -138 0 -137 0 -198 -198z"/>
<path d="M19000 1955 l0 -205 170 0 170 0 0 -135 0 -135 -170 0 -170 0 0 -140
0 -140 480 0 480 0 0 283 0 282 -198 198 -197 197 -283 0 -282 0 0 -205z"/>
<path d="M1050 1470 l0 -200 160 0 160 0 0 -355 0 -355 300 0 300 0 0 555 0
555 -460 0 -460 0 0 -200z"/>
<path d="M2367 1362 l-137 -137 0 -200 0 -200 132 -132 133 -133 260 0 260 0
98 98 97 97 0 93 0 92 -170 0 -170 0 0 135 0 135 170 0 170 0 0 145 0 145
-353 0 -352 0 -138 -138z"/>
<path d="M11670 1067 l0 -103 168 -202 167 -201 418 0 417 -1 0 185 0 185
-245 0 -245 0 0 120 0 120 -340 0 -340 0 0 -103z"/>
<path d="M9050 750 l0 -190 353 0 352 0 98 98 97 97 0 93 0 92 -450 0 -450 0
0 -190z"/>
<path d="M19000 750 l0 -190 348 0 347 0 98 98 97 97 0 93 0 92 -445 0 -445 0
0 -190z"/>
</g>
</svg>
